<svg width="70" height="70" viewBox="0 0 70 70" fill="none" xmlns="http://www.w3.org/2000/svg">
<path d="M25.515 63.4375H21.8755C21.5099 63.4374 21.15 63.3456 20.829 63.1705C20.5079 62.9954 20.2359 62.7426 20.0377 62.4353C19.8396 62.1279 19.7217 61.7758 19.6947 61.4111C19.6678 61.0464 19.7327 60.6808 19.8836 60.3477L28.6964 40.8994L15.4634 40.6055L10.6373 46.4529C9.71715 47.6096 8.98297 48.125 7.10992 48.125H4.65992C4.27201 48.1375 3.88681 48.0563 3.53696 47.8882C3.1871 47.7202 2.88291 47.4703 2.65016 47.1598C2.32477 46.7209 2.00484 45.9771 2.31656 44.9162L5.02633 35.2092C5.04684 35.1367 5.07145 35.0643 5.09879 34.9932C5.10015 34.9864 5.10015 34.9794 5.09879 34.9727C5.07056 34.9016 5.04636 34.829 5.02633 34.7553L2.31383 24.9867C2.01988 23.9463 2.34117 23.2189 2.66383 22.791C2.8805 22.5035 3.1616 22.2709 3.48453 22.1118C3.80747 21.9527 4.16322 21.8716 4.5232 21.875H7.10992C8.50856 21.875 9.86617 22.5025 10.6646 23.5156L15.391 29.2646L28.6964 29.0678L19.8863 9.65371C19.7352 9.32073 19.6701 8.9552 19.6967 8.59054C19.7234 8.22587 19.841 7.8737 20.0389 7.56623C20.2367 7.25875 20.5085 7.00578 20.8294 6.83044C21.1502 6.65509 21.5099 6.56297 21.8755 6.5625H25.5546C26.0679 6.57281 26.5723 6.69862 27.0303 6.93057C27.4883 7.16253 27.8881 7.49467 28.2002 7.90234L45.2968 28.6836L53.1951 28.4758C53.7734 28.4443 55.3757 28.4334 55.7463 28.4334C63.3013 28.4375 67.813 30.8902 67.813 35C67.813 36.2934 67.2962 38.6914 63.8386 40.2172C61.7974 41.1195 59.074 41.5762 55.7435 41.5762C55.3771 41.5762 53.7789 41.5652 53.1923 41.5338L45.2955 41.3232L28.1564 62.1045C27.8441 62.5104 27.4446 62.8409 26.9874 63.0716C26.5302 63.3023 26.027 63.4274 25.515 63.4375Z" fill="black" fill-opacity="0.6"/>
</svg>
