<svg width="70" height="70" viewBox="0 0 70 70" fill="none" xmlns="http://www.w3.org/2000/svg">
<path d="M4.375 51.4062C4.375 53.4368 5.18164 55.3842 6.61746 56.82C8.05329 58.2559 10.0007 59.0625 12.0312 59.0625H57.9688C59.9993 59.0625 61.9467 58.2559 63.3825 56.82C64.8184 55.3842 65.625 53.4368 65.625 51.4062V30.3516H4.375V51.4062ZM13.3984 41.0156C13.3984 39.9278 13.8306 38.8846 14.5998 38.1154C15.3689 37.3462 16.4122 36.9141 17.5 36.9141H24.0625C25.1503 36.9141 26.1936 37.3462 26.9627 38.1154C27.7319 38.8846 28.1641 39.9278 28.1641 41.0156V43.75C28.1641 44.8378 27.7319 45.8811 26.9627 46.6502C26.1936 47.4194 25.1503 47.8516 24.0625 47.8516H17.5C16.4122 47.8516 15.3689 47.4194 14.5998 46.6502C13.8306 45.8811 13.3984 44.8378 13.3984 43.75V41.0156ZM57.9688 10.9375H12.0312C10.0007 10.9375 8.05329 11.7441 6.61746 13.18C5.18164 14.6158 4.375 16.5632 4.375 18.5938V22.1484H65.625V18.5938C65.625 16.5632 64.8184 14.6158 63.3825 13.18C61.9467 11.7441 59.9993 10.9375 57.9688 10.9375Z" fill="black" fill-opacity="0.6"/>
</svg>
