<svg width="33" height="33" viewBox="0 0 33 33" fill="none" xmlns="http://www.w3.org/2000/svg">
<path d="M25.454 30.4552C25.206 30.4559 24.9663 30.3657 24.7803 30.2017L16.3278 22.6859L7.87522 30.2017C7.72895 30.3317 7.54817 30.4166 7.35471 30.4462C7.16125 30.4758 6.96336 30.4487 6.78493 30.3683C6.6065 30.2879 6.45515 30.1576 6.34914 29.9931C6.24313 29.8286 6.18699 29.6369 6.1875 29.4412V6.1186C6.18868 5.04322 6.61639 4.01221 7.37681 3.2518C8.13722 2.49139 9.16822 2.06367 10.2436 2.0625H22.4119C23.4873 2.06367 24.5183 2.49139 25.2787 3.2518C26.0391 4.01221 26.4668 5.04322 26.468 6.1186V29.4412C26.468 29.7101 26.3612 29.968 26.171 30.1582C25.9808 30.3484 25.7229 30.4552 25.454 30.4552Z" fill="#33A9FF"/>
</svg>
