<svg width="36" height="36" viewBox="0 0 36 36" fill="none" xmlns="http://www.w3.org/2000/svg">
<path d="M33.7526 15.9556L19.2367 1.66135C18.7575 1.19222 17.9778 1.1911 17.4986 1.66135L2.9827 15.9545C2.62945 16.3032 2.52145 16.8241 2.70933 17.2831C2.89833 17.7477 3.3472 18.047 3.85233 18.047L5.98758 18.0278V32.7113C5.98758 33.3863 6.54108 33.9342 7.2217 33.9342H13.9222C14.7255 33.9342 15.3791 33.2862 15.3791 32.4897V24.6068C15.3791 24.2885 15.6457 24.0286 15.9742 24.0286H20.7588C21.0873 24.0286 21.354 24.2873 21.354 24.6068V32.4897C21.354 33.2862 22.0076 33.9342 22.812 33.9342H29.5125C30.192 33.9342 30.7466 33.3852 30.7466 32.7113L30.7353 18.047H32.8818C33.3858 18.047 33.8358 17.7466 34.026 17.2831C34.215 16.8241 34.107 16.3032 33.7526 15.9556Z" fill="url(#paint0_linear_118_1586)" fill-opacity="0.6"/>
<defs>
<linearGradient id="paint0_linear_118_1586" x1="8.5" y1="7.5" x2="30.5" y2="32" gradientUnits="userSpaceOnUse">
<stop stop-color="#33A9FF"/>
<stop offset="1" stop-color="#ADDBFF"/>
</linearGradient>
</defs>
</svg>
