<svg width="68" height="68" viewBox="0 0 68 68" fill="none" xmlns="http://www.w3.org/2000/svg">
<path d="M65.875 14.543C63.4837 15.5821 60.9535 16.2666 58.3645 16.575C61.0853 14.9818 63.1315 12.4506 64.1192 9.45627C61.5468 10.9605 58.7371 12.0159 55.8105 12.5774C54.5781 11.2858 53.096 10.2583 51.4541 9.5574C49.8123 8.85647 48.0451 8.49672 46.2599 8.50002C39.0323 8.50002 33.1832 14.2641 33.1832 21.3696C33.1781 22.3579 33.2913 23.3433 33.5205 24.3047C28.3378 24.0617 23.2628 22.7396 18.6203 20.4229C13.9778 18.1063 9.86994 14.846 6.55961 10.8508C5.39826 12.8086 4.78408 15.0424 4.78125 17.3188C4.78125 21.7813 7.10945 25.7258 10.625 28.0367C8.54214 27.9873 6.50196 27.436 4.67766 26.4297V26.5891C4.67766 32.8313 9.19328 38.0242 15.1698 39.2063C14.046 39.5059 12.8878 39.6577 11.7247 39.6578C10.8994 39.6593 10.0759 39.5792 9.26633 39.4188C10.9278 44.5321 15.7635 48.2508 21.4917 48.3571C16.8371 51.9442 11.1225 53.883 5.24609 53.8688C4.20301 53.8672 3.16089 53.8051 2.125 53.6828C8.10313 57.5002 15.0522 59.5193 22.1452 59.5C46.232 59.5 59.3911 39.8836 59.3911 22.8703C59.3911 22.3125 59.3765 21.7547 59.3499 21.2102C61.904 19.3934 64.1136 17.1356 65.875 14.543Z" fill="black" fill-opacity="0.3"/>
</svg>
