<svg width="68" height="68" viewBox="0 0 68 68" fill="none" xmlns="http://www.w3.org/2000/svg">
<path d="M46.3954 9.20789C49.6802 9.2177 52.8276 10.5269 55.1504 12.8496C57.4731 15.1724 58.7823 18.3198 58.7921 21.6046V46.3954C58.7823 49.6802 57.4731 52.8276 55.1504 55.1504C52.8276 57.4731 49.6802 58.7823 46.3954 58.7921H21.6046C18.3198 58.7823 15.1724 57.4731 12.8496 55.1504C10.5269 52.8276 9.2177 49.6802 9.20789 46.3954V21.6046C9.2177 18.3198 10.5269 15.1724 12.8496 12.8496C15.1724 10.5269 18.3198 9.2177 21.6046 9.20789H46.3954ZM46.3954 4.25H21.6046C12.0594 4.25 4.25 12.0594 4.25 21.6046V46.3954C4.25 55.9406 12.0594 63.75 21.6046 63.75H46.3954C55.9406 63.75 63.75 55.9406 63.75 46.3954V21.6046C63.75 12.0594 55.9406 4.25 46.3954 4.25Z" fill="black" fill-opacity="0.3"/>
<path d="M50.1141 21.6045C49.3786 21.6045 48.6597 21.3864 48.0481 20.9778C47.4366 20.5692 46.9599 19.9884 46.6785 19.3088C46.397 18.6293 46.3234 17.8816 46.4669 17.1603C46.6103 16.4389 46.9645 15.7763 47.4846 15.2562C48.0047 14.7361 48.6673 14.3819 49.3887 14.2384C50.11 14.095 50.8577 14.1686 51.5373 14.4501C52.2168 14.7315 52.7976 15.2082 53.2062 15.8197C53.6148 16.4313 53.8329 17.1502 53.8329 17.8857C53.8339 18.3744 53.7385 18.8584 53.552 19.3101C53.3654 19.7617 53.0916 20.1721 52.746 20.5176C52.4005 20.8632 51.9901 21.137 51.5385 21.3236C51.0868 21.5101 50.6028 21.6055 50.1141 21.6045ZM34 24.0828C35.9614 24.0828 37.8788 24.6644 39.5097 25.7541C41.1405 26.8438 42.4116 28.3927 43.1622 30.2048C43.9128 32.0169 44.1092 34.0109 43.7266 35.9346C43.3439 37.8583 42.3994 39.6254 41.0125 41.0123C39.6255 42.3993 37.8585 43.3438 35.9347 43.7264C34.011 44.1091 32.017 43.9127 30.2049 43.1621C28.3928 42.4115 26.8439 41.1404 25.7542 39.5095C24.6645 37.8787 24.0829 35.9613 24.0829 33.9999C24.0857 31.3706 25.1314 28.8497 26.9907 26.9905C28.8499 25.1313 31.3707 24.0856 34 24.0828ZM34 19.1249C31.058 19.1249 28.1821 19.9973 25.7359 21.6318C23.2897 23.2663 21.3832 25.5894 20.2573 28.3075C19.1314 31.0255 18.8369 34.0164 19.4108 36.9019C19.9848 39.7873 21.4015 42.4378 23.4818 44.5181C25.5621 46.5984 28.2126 48.0151 31.098 48.5891C33.9835 49.163 36.9744 48.8684 39.6924 47.7426C42.4105 46.6167 44.7336 44.7102 46.3681 42.264C48.0026 39.8178 48.875 36.9419 48.875 33.9999C48.875 30.0548 47.3078 26.2713 44.5182 23.4817C41.7286 20.6921 37.9451 19.1249 34 19.1249Z" fill="black" fill-opacity="0.3"/>
</svg>
