<svg width="45" height="43" viewBox="0 0 45 43" fill="none" xmlns="http://www.w3.org/2000/svg">
<path d="M39.9595 13.98C39.6988 13.7334 39.3886 13.5379 39.0469 13.4048C38.7052 13.2716 38.3387 13.2035 37.9688 13.2042H32.3438V11.8838C32.3438 9.43241 31.3066 7.08143 29.4606 5.34804C27.6145 3.61465 25.1107 2.64084 22.5 2.64084C19.8893 2.64084 17.3855 3.61465 15.5394 5.34804C13.6934 7.08143 12.6563 9.43241 12.6563 11.8838V13.2042H7.03125C6.28533 13.2042 5.56996 13.4825 5.04251 13.9777C4.51507 14.473 4.21875 15.1447 4.21875 15.8451V33.6708C4.21875 36.8893 7.11914 39.6127 10.5469 39.6127H34.4531C36.1112 39.6132 37.7036 39.0045 38.8898 37.9168C39.4868 37.382 39.9622 36.7392 40.2873 36.0272C40.6124 35.3151 40.7804 34.5486 40.7813 33.7739V15.8451C40.7824 15.4986 40.7104 15.1554 40.5693 14.8352C40.4282 14.5151 40.221 14.2244 39.9595 13.98ZM15.4688 11.8838C15.4688 10.1328 16.2095 8.45353 17.5282 7.2154C18.8468 5.97726 20.6352 5.28168 22.5 5.28168C24.3648 5.28168 26.1532 5.97726 27.4718 7.2154C28.7905 8.45353 29.5313 10.1328 29.5313 11.8838V13.2042H15.4688V11.8838ZM32.3438 19.8063C32.3438 22.2577 31.3066 24.6087 29.4606 26.3421C27.6145 28.0755 25.1107 29.0493 22.5 29.0493C19.8893 29.0493 17.3855 28.0755 15.5394 26.3421C13.6934 24.6087 12.6563 22.2577 12.6563 19.8063V18.4859C12.6563 18.1357 12.8044 17.7999 13.0681 17.5522C13.3319 17.3046 13.6895 17.1655 14.0625 17.1655C14.4355 17.1655 14.7931 17.3046 15.0569 17.5522C15.3206 17.7999 15.4688 18.1357 15.4688 18.4859V19.8063C15.4688 21.5573 16.2095 23.2366 17.5282 24.4747C18.8468 25.7129 20.6352 26.4084 22.5 26.4084C24.3648 26.4084 26.1532 25.7129 27.4718 24.4747C28.7905 23.2366 29.5313 21.5573 29.5313 19.8063V18.4859C29.5313 18.1357 29.6794 17.7999 29.9431 17.5522C30.2069 17.3046 30.5645 17.1655 30.9375 17.1655C31.3105 17.1655 31.6681 17.3046 31.9319 17.5522C32.1956 17.7999 32.3438 18.1357 32.3438 18.4859V19.8063Z" fill="#33A9FF"/>
</svg>
