<svg width="22" height="22" viewBox="0 0 22 22" fill="none" xmlns="http://www.w3.org/2000/svg">
<path d="M15.4095 5.55496L3.71637 17.2768L3.00781 18.9922L4.72312 18.2836L16.445 6.59051L15.4095 5.55496ZM17.7491 3.21575L17.2425 3.72192L18.278 4.75746L18.7846 4.25086C18.9176 4.11784 18.9922 3.93748 18.9922 3.74942C18.9922 3.56136 18.9176 3.381 18.7846 3.24797L18.7524 3.21575C18.6865 3.14986 18.6083 3.0976 18.5223 3.06194C18.4362 3.02629 18.3439 3.00793 18.2508 3.00793C18.1576 3.00793 18.0653 3.02629 17.9793 3.06194C17.8932 3.0976 17.815 3.14986 17.7491 3.21575Z" fill="black" stroke="black" stroke-linecap="round" stroke-linejoin="round"/>
</svg>
