<svg width="66" height="58" viewBox="0 0 66 58" fill="none" xmlns="http://www.w3.org/2000/svg">
<path d="M23.515 57.4375H19.8755C19.5099 57.4374 19.15 57.3456 18.829 57.1705C18.5079 56.9954 18.2359 56.7426 18.0377 56.4353C17.8396 56.1279 17.7217 55.7758 17.6947 55.4111C17.6678 55.0464 17.7327 54.6808 17.8836 54.3477L26.6964 34.8994L13.4634 34.6055L8.63727 40.4529C7.71715 41.6096 6.98297 42.125 5.10992 42.125H2.65992C2.27201 42.1375 1.88681 42.0563 1.53696 41.8882C1.1871 41.7202 0.882911 41.4703 0.650157 41.1598C0.324767 40.7209 0.00484498 39.9771 0.316564 38.9162L3.02633 29.2092C3.04684 29.1367 3.07145 29.0643 3.09879 28.9932C3.10015 28.9864 3.10015 28.9794 3.09879 28.9727C3.07056 28.9016 3.04636 28.829 3.02633 28.7553L0.313829 18.9867C0.019884 17.9463 0.341173 17.2189 0.663829 16.791C0.880495 16.5035 1.1616 16.2709 1.48453 16.1118C1.80747 15.9527 2.16322 15.8716 2.5232 15.875H5.10992C6.50856 15.875 7.86617 16.5025 8.66461 17.5156L13.391 23.2646L26.6964 23.0678L17.8863 3.65371C17.7352 3.32073 17.6701 2.9552 17.6967 2.59054C17.7234 2.22587 17.841 1.8737 18.0389 1.56623C18.2367 1.25875 18.5085 1.00578 18.8294 0.830438C19.1502 0.655095 19.5099 0.562975 19.8755 0.5625H23.5546C24.0679 0.572815 24.5723 0.69862 25.0303 0.930574C25.4883 1.16253 25.8881 1.49467 26.2002 1.90234L43.2968 22.6836L51.1951 22.4758C51.7734 22.4443 53.3757 22.4334 53.7463 22.4334C61.3013 22.4375 65.813 24.8902 65.813 29C65.813 30.2934 65.2962 32.6914 61.8386 34.2172C59.7974 35.1195 57.074 35.5762 53.7435 35.5762C53.3771 35.5762 51.7789 35.5652 51.1923 35.5338L43.2955 35.3232L26.1564 56.1045C25.8441 56.5104 25.4446 56.8409 24.9874 57.0716C24.5302 57.3023 24.027 57.4274 23.515 57.4375Z" fill="black" fill-opacity="0.6"/>
</svg>
