<svg width="70" height="70" viewBox="0 0 70 70" fill="none" xmlns="http://www.w3.org/2000/svg">
<path d="M65.4988 15.225C65.4679 14.7364 65.2739 14.2722 64.948 13.9068C64.622 13.5415 64.1829 13.296 63.7009 13.2098C51.8748 11.0879 46.9379 9.55393 35.9019 4.56916C35.6188 4.44119 35.3116 4.375 35.0009 4.375C34.6902 4.375 34.3831 4.44119 34.1 4.56916C23.064 9.55393 18.1271 11.0879 6.30094 13.2098C5.81897 13.296 5.37986 13.5415 5.0539 13.9068C4.72795 14.2722 4.534 14.7364 4.50309 15.225C3.97672 23.5799 5.09919 31.3647 7.84313 38.3633C10.0901 44.072 13.4155 49.2945 17.6377 53.7455C24.948 61.5016 32.7095 64.8703 34.1902 65.4664C34.7164 65.6793 35.3047 65.6793 35.8308 65.4664C37.3115 64.8703 45.073 61.5016 52.3834 53.7455C56.5986 49.2929 59.9175 44.0704 62.1588 38.3633C64.9027 31.3647 66.0252 23.5799 65.4988 15.225ZM47.5886 25.494L32.4402 42.994C32.2454 43.2196 32.0066 43.4031 31.7383 43.5331C31.4701 43.6631 31.1781 43.7369 30.8802 43.75H30.79C30.2175 43.7502 29.6677 43.5258 29.2588 43.1252L22.5322 36.5354C22.327 36.3343 22.1634 36.0947 22.0507 35.8304C21.9381 35.5661 21.8786 35.2822 21.8757 34.9949C21.8698 34.4147 22.0946 33.8559 22.5007 33.4414C22.9069 33.027 23.461 32.7908 24.0412 32.7849C24.6214 32.779 25.1802 33.0039 25.5947 33.41L30.6533 38.3715L44.2841 22.6311C44.4721 22.4138 44.7011 22.2357 44.9579 22.107C45.2147 21.9782 45.4943 21.9013 45.7809 21.8806C46.0674 21.8599 46.3552 21.8958 46.6279 21.9864C46.9005 22.0769 47.1526 22.2202 47.3699 22.4082C47.5871 22.5962 47.7652 22.8251 47.894 23.0819C48.0228 23.3387 48.0997 23.6184 48.1204 23.9049C48.1411 24.1915 48.1051 24.4793 48.0146 24.7519C47.9241 25.0246 47.7807 25.2767 47.5927 25.494H47.5886Z" fill="black" fill-opacity="0.6"/>
</svg>
