<svg width="22" height="22" viewBox="0 0 22 22" fill="none" xmlns="http://www.w3.org/2000/svg">
<path d="M11 2.0625C6.06418 2.0625 2.0625 6.06418 2.0625 11C2.0625 15.9358 6.06418 19.9375 11 19.9375C15.9358 19.9375 19.9375 15.9358 19.9375 11C19.9375 6.06418 15.9358 2.0625 11 2.0625ZM15.125 12.375H11C10.8177 12.375 10.6428 12.3026 10.5139 12.1736C10.3849 12.0447 10.3125 11.8698 10.3125 11.6875V5.5C10.3125 5.31766 10.3849 5.1428 10.5139 5.01386C10.6428 4.88493 10.8177 4.8125 11 4.8125C11.1823 4.8125 11.3572 4.88493 11.4861 5.01386C11.6151 5.1428 11.6875 5.31766 11.6875 5.5V11H15.125C15.3073 11 15.4822 11.0724 15.6111 11.2014C15.7401 11.3303 15.8125 11.5052 15.8125 11.6875C15.8125 11.8698 15.7401 12.0447 15.6111 12.1736C15.4822 12.3026 15.3073 12.375 15.125 12.375Z" fill="black"/>
</svg>
